<svg id="Camada_1" data-name="Camada 1" xmlns="http://www.w3.org/2000/svg" viewBox="0 0 4.97 5"><defs><style>.cls-1{fill:#fff;}</style></defs><path class="cls-1" d="M2.49,5H1.41A1.36,1.36,0,0,1,0,3.62c0-.74,0-1.49,0-2.23A1.34,1.34,0,0,1,1.4,0H3.59A1.36,1.36,0,0,1,5,1.41V3.59A1.37,1.37,0,0,1,3.57,5Zm0-.45h.9A1.09,1.09,0,0,0,4.53,3.49c0-.66,0-1.32,0-2A1.09,1.09,0,0,0,3.46.45c-.64,0-1.27,0-1.9,0A1.1,1.1,0,0,0,.47,1.55c0,.64,0,1.28,0,1.91A1.1,1.1,0,0,0,1.55,4.55Z" transform="translate(-0.02 0)"/><path class="cls-1" d="M2.49,1.22A1.27,1.27,0,0,1,3.76,2.49,1.3,1.3,0,0,1,2.51,3.78,1.26,1.26,0,0,1,1.24,2.49,1.26,1.26,0,0,1,2.49,1.22Zm.83,1.29a.82.82,0,0,0-.82-.85.83.83,0,0,0-.85.84.85.85,0,0,0,.83.85A.85.85,0,0,0,3.32,2.51Z" transform="translate(-0.02 0)"/><path class="cls-1" d="M3.54,1.16a.3.3,0,0,1,.3-.3.27.27,0,0,1,.29.3.3.3,0,1,1-.59,0Z" transform="translate(-0.02 0)"/></svg>