<svg id="Camada_1" data-name="Camada 1" xmlns="http://www.w3.org/2000/svg" viewBox="0 0 5 5"><defs><style>.cls-1{fill:#fff;}</style></defs><path class="cls-1" d="M4.7,5H.3a.41.41,0,0,1-.23-.15A1,1,0,0,1,0,4.7V.3A.32.32,0,0,1,.12.1,1,1,0,0,1,.3,0H4.7a.41.41,0,0,1,.23.15A1,1,0,0,1,5,.3V4.7a.41.41,0,0,1-.15.23Zm-2-3H2.11V3.78h.61V2.69a.35.35,0,0,1,.16-.26.29.29,0,0,1,.45.17.76.76,0,0,1,0,.21v1H4V2.72a2,2,0,0,0-.05-.35.61.61,0,0,0-.51-.45.61.61,0,0,0-.67.26s0,0,0,0Zm-1,1.83V2s0,0,0,0H1.17V3.78Zm-.3-2.72a.34.34,0,0,0-.33.22.31.31,0,0,0,.26.41.33.33,0,0,0,.39-.2A.32.32,0,0,0,1.47,1.06Z" transform="translate(0)"/></svg>