<svg id="Camada_1" data-name="Camada 1" xmlns="http://www.w3.org/2000/svg" viewBox="0 0 4.92 4.94"><defs><style>.cls-1{fill:#fff;}</style></defs><path class="cls-1" d="M2.4.06A2.16,2.16,0,0,1,3.88.45a2.49,2.49,0,0,1,.74,3.26,2.39,2.39,0,0,1-.54.6,2.37,2.37,0,0,1-2.62.3.31.31,0,0,0-.19,0l-.6.19L0,5a1.56,1.56,0,0,1,.05-.16c.11-.34.23-.68.34-1a.28.28,0,0,0,0-.22,2.28,2.28,0,0,1-.28-1.4A2.56,2.56,0,0,1,2.4.06ZM.66,4.37l.67-.22a.21.21,0,0,1,.19,0,2,2,0,0,0,1.27.27,2,2,0,1,0-1.93-.9.17.17,0,0,1,0,.18Z" transform="translate(-0.03 -0.05)"/><path d="M3.25,3.66l.32-.12a.42.42,0,0,0,.23-.42.11.11,0,0,0,0-.09l-.48-.26a.1.1,0,0,0-.15,0L3,3a.14.14,0,0,1-.21,0,1.63,1.63,0,0,1-.67-.58c-.14-.2-.14-.2,0-.39a.24.24,0,0,0,.05-.29C2.08,1.63,2,1.48,2,1.35a.19.19,0,0,0-.11-.09.33.33,0,0,0-.37.12.75.75,0,0,0-.1.8,2.64,2.64,0,0,0,1,1.14A2,2,0,0,0,3.25,3.66Z" transform="translate(-0.03 -0.05)"/><path class="cls-1" d="M3.25,3.66a2,2,0,0,1-.9-.34,2.64,2.64,0,0,1-1-1.14.75.75,0,0,1,.1-.8.33.33,0,0,1,.37-.12A.19.19,0,0,1,2,1.35c.06.13.1.28.16.41a.24.24,0,0,1-.05.29c-.15.19-.15.19,0,.39A1.63,1.63,0,0,0,2.75,3,.14.14,0,0,0,3,3l.16-.17a.1.1,0,0,1,.15,0L3.75,3a.11.11,0,0,1,0,.09.42.42,0,0,1-.23.42Z" transform="translate(-0.03 -0.05)"/></svg>